<mxfile host="app.diagrams.net" agent="Mozilla/5.0 (Macintosh; Intel Mac OS X 10.15; rv:138.0) Gecko/20100101 Firefox/138.0" version="27.0.9">
  <diagram id="YgBtREGgeAqtKFtFVm2K" name="Page-1">
    <mxGraphModel dx="2061" dy="749" grid="1" gridSize="10" guides="1" tooltips="1" connect="1" arrows="1" fold="1" page="1" pageScale="1" pageWidth="827" pageHeight="1169" math="0" shadow="0">
      <root>
        <mxCell id="0" />
        <mxCell id="1" parent="0" />
        <mxCell id="ut0Zyik2L8hWZqNM1mhC-1" value="User&#39;s Workstation" style="verticalAlign=top;align=left;spacingTop=8;spacingLeft=2;spacingRight=12;shape=cube;size=10;direction=south;fontStyle=4;html=1;rounded=0;shadow=0;comic=0;labelBackgroundColor=none;strokeWidth=1;fontFamily=Verdana;fontSize=12" vertex="1" parent="1">
          <mxGeometry x="180" y="360" width="330" height="160" as="geometry" />
        </mxCell>
        <mxCell id="ut0Zyik2L8hWZqNM1mhC-2" value="Silver OpenShift Cluster" style="verticalAlign=top;align=left;spacingTop=8;spacingLeft=2;spacingRight=12;shape=cube;size=10;direction=south;fontStyle=4;html=1;rounded=0;shadow=0;comic=0;labelBackgroundColor=none;strokeWidth=1;fontFamily=Verdana;fontSize=12;" vertex="1" parent="1">
          <mxGeometry x="680" y="300" width="360" height="570" as="geometry" />
        </mxCell>
        <mxCell id="ut0Zyik2L8hWZqNM1mhC-3" style="edgeStyle=orthogonalEdgeStyle;rounded=0;orthogonalLoop=1;jettySize=auto;html=1;" edge="1" parent="1" source="ut0Zyik2L8hWZqNM1mhC-4" target="ut0Zyik2L8hWZqNM1mhC-8">
          <mxGeometry relative="1" as="geometry" />
        </mxCell>
        <mxCell id="ut0Zyik2L8hWZqNM1mhC-4" value="Browser" style="shape=component;align=left;spacingLeft=36;rounded=0;shadow=0;comic=0;labelBackgroundColor=none;strokeWidth=1;fontFamily=Verdana;fontSize=12;html=1;" vertex="1" parent="1">
          <mxGeometry x="270" y="415" width="120" height="60" as="geometry" />
        </mxCell>
        <mxCell id="ut0Zyik2L8hWZqNM1mhC-6" value="&lt;div align=&quot;left&quot;&gt;Architecture Diagram&lt;/div&gt;&lt;div align=&quot;left&quot;&gt;&lt;br&gt;&lt;/div&gt;&lt;div align=&quot;left&quot;&gt;ENMODS Web Reporting (ENMODS WR)&lt;/div&gt;&lt;div align=&quot;left&quot;&gt;Author: Salus Systems&lt;/div&gt;&lt;div align=&quot;left&quot;&gt;Version: 1.0&lt;/div&gt;" style="shape=umlFrame;whiteSpace=wrap;html=1;pointerEvents=0;width=240;height=80;align=left;" vertex="1" parent="1">
          <mxGeometry x="-10" y="170" width="1820" height="810" as="geometry" />
        </mxCell>
        <mxCell id="ut0Zyik2L8hWZqNM1mhC-7" value="ENMODS WR Application" style="swimlane;whiteSpace=wrap;html=1;fillColor=#CCFFE6;backgroundOutline=0;swimlaneFillColor=#9DFFFB;" vertex="1" parent="1">
          <mxGeometry x="690" y="345" width="320" height="495" as="geometry" />
        </mxCell>
        <mxCell id="ut0Zyik2L8hWZqNM1mhC-8" value="Frontend Docker Container" style="verticalAlign=top;align=left;spacingTop=8;spacingLeft=2;spacingRight=12;shape=cube;size=10;direction=south;fontStyle=4;html=1;rounded=0;shadow=0;comic=0;labelBackgroundColor=none;strokeWidth=1;fontFamily=Verdana;fontSize=12;fillColor=#F6FFCB;" vertex="1" parent="1">
          <mxGeometry x="710" y="380" width="290" height="130" as="geometry" />
        </mxCell>
        <mxCell id="ut0Zyik2L8hWZqNM1mhC-9" value="Caddy" style="shape=component;align=left;spacingLeft=36;rounded=0;shadow=0;comic=0;labelBackgroundColor=none;strokeWidth=1;fontFamily=Verdana;fontSize=12;html=1;fillColor=#FF9933;" vertex="1" parent="1">
          <mxGeometry x="860" y="420" width="120" height="60" as="geometry" />
        </mxCell>
        <mxCell id="ut0Zyik2L8hWZqNM1mhC-10" value="Backend Docker Container" style="verticalAlign=top;align=left;spacingTop=8;spacingLeft=2;spacingRight=12;shape=cube;size=10;direction=south;fontStyle=4;html=1;rounded=0;shadow=0;comic=0;labelBackgroundColor=none;strokeWidth=1;fontFamily=Verdana;fontSize=12;fillColor=#F6FFCB;" vertex="1" parent="1">
          <mxGeometry x="710" y="530" width="290" height="130" as="geometry" />
        </mxCell>
        <mxCell id="ut0Zyik2L8hWZqNM1mhC-11" value="&lt;div&gt;&lt;i&gt;&lt;font style=&quot;font-size: 10px;&quot;&gt;&amp;lt;&amp;lt;API&amp;gt;&amp;gt;&lt;/font&gt;&lt;/i&gt;&lt;/div&gt;&lt;div&gt;&lt;br&gt;&lt;/div&gt;&lt;div&gt;NestJS&lt;/div&gt;" style="shape=component;align=left;spacingLeft=36;rounded=0;shadow=0;comic=0;labelBackgroundColor=none;strokeWidth=1;fontFamily=Verdana;fontSize=12;html=1;fillColor=#FF9933;" vertex="1" parent="1">
          <mxGeometry x="785" y="580" width="120" height="60" as="geometry" />
        </mxCell>
        <mxCell id="ut0Zyik2L8hWZqNM1mhC-12" value="Database Container" style="verticalAlign=top;align=left;spacingTop=8;spacingLeft=2;spacingRight=12;shape=cube;size=10;direction=south;fontStyle=4;html=1;rounded=0;shadow=0;comic=0;labelBackgroundColor=none;strokeWidth=1;fontFamily=Verdana;fontSize=12;fillColor=#F6FFCB;" vertex="1" parent="1">
          <mxGeometry x="710" y="685" width="290" height="130" as="geometry" />
        </mxCell>
        <mxCell id="ut0Zyik2L8hWZqNM1mhC-13" value="Postgres" style="shape=cylinder3;whiteSpace=wrap;html=1;boundedLbl=1;backgroundOutline=1;size=15;fillColor=#FF9933;" vertex="1" parent="1">
          <mxGeometry x="815" y="720" width="60" height="80" as="geometry" />
        </mxCell>
        <mxCell id="ut0Zyik2L8hWZqNM1mhC-14" style="edgeStyle=orthogonalEdgeStyle;rounded=0;orthogonalLoop=1;jettySize=auto;html=1;exitX=0.5;exitY=1;exitDx=0;exitDy=0;" edge="1" parent="1" source="ut0Zyik2L8hWZqNM1mhC-11" target="ut0Zyik2L8hWZqNM1mhC-13">
          <mxGeometry relative="1" as="geometry" />
        </mxCell>
        <mxCell id="ut0Zyik2L8hWZqNM1mhC-19" style="edgeStyle=orthogonalEdgeStyle;rounded=0;orthogonalLoop=1;jettySize=auto;html=1;" edge="1" parent="1" source="ut0Zyik2L8hWZqNM1mhC-9" target="ut0Zyik2L8hWZqNM1mhC-11">
          <mxGeometry relative="1" as="geometry">
            <Array as="points">
              <mxPoint x="920" y="520" />
              <mxPoint x="880" y="520" />
            </Array>
          </mxGeometry>
        </mxCell>
        <mxCell id="ut0Zyik2L8hWZqNM1mhC-21" value="React Frontend UI" style="shape=module;align=left;spacingLeft=20;align=center;verticalAlign=top;whiteSpace=wrap;html=1;fillColor=#FF9933;" vertex="1" parent="1">
          <mxGeometry x="730" y="430" width="100" height="50" as="geometry" />
        </mxCell>
        <mxCell id="ut0Zyik2L8hWZqNM1mhC-28" value="&lt;div&gt;Dell File Server&lt;/div&gt;" style="verticalAlign=top;align=left;spacingTop=8;spacingLeft=2;spacingRight=12;shape=cube;size=10;direction=south;fontStyle=4;html=1;rounded=0;shadow=0;comic=0;labelBackgroundColor=none;strokeWidth=1;fontFamily=Verdana;fontSize=12" vertex="1" parent="1">
          <mxGeometry x="1110" y="300" width="290" height="160" as="geometry" />
        </mxCell>
        <mxCell id="ut0Zyik2L8hWZqNM1mhC-29" value="NRS Object Store" style="shape=module;align=left;spacingLeft=20;align=center;verticalAlign=top;whiteSpace=wrap;html=1;" vertex="1" parent="1">
          <mxGeometry x="1140" y="350" width="190" height="60" as="geometry" />
        </mxCell>
        <mxCell id="ut0Zyik2L8hWZqNM1mhC-36" value="External Application" style="verticalAlign=top;align=left;spacingTop=8;spacingLeft=2;spacingRight=12;shape=cube;size=10;direction=south;fontStyle=4;html=1;rounded=0;shadow=0;comic=0;labelBackgroundColor=none;strokeWidth=1;fontFamily=Verdana;fontSize=12" vertex="1" parent="1">
          <mxGeometry x="1120" y="635" width="250" height="195" as="geometry" />
        </mxCell>
        <mxCell id="ut0Zyik2L8hWZqNM1mhC-37" value="AQI APIs" style="shape=module;align=center;spacingLeft=20;align=center;verticalAlign=top;whiteSpace=wrap;html=1;" vertex="1" parent="1">
          <mxGeometry x="1180" y="725" width="100" height="50" as="geometry" />
        </mxCell>
        <mxCell id="ut0Zyik2L8hWZqNM1mhC-38" style="edgeStyle=orthogonalEdgeStyle;rounded=0;orthogonalLoop=1;jettySize=auto;html=1;entryX=0;entryY=0;entryDx=0;entryDy=35;entryPerimeter=0;" edge="1" parent="1" target="ut0Zyik2L8hWZqNM1mhC-37">
          <mxGeometry relative="1" as="geometry">
            <mxPoint x="890" y="640" as="sourcePoint" />
            <Array as="points">
              <mxPoint x="890" y="670" />
              <mxPoint x="1060" y="670" />
              <mxPoint x="1060" y="760" />
            </Array>
          </mxGeometry>
        </mxCell>
        <mxCell id="ut0Zyik2L8hWZqNM1mhC-39" value="Query Data" style="edgeLabel;html=1;align=center;verticalAlign=middle;resizable=0;points=[];" vertex="1" connectable="0" parent="ut0Zyik2L8hWZqNM1mhC-38">
          <mxGeometry x="0.5024" y="-1" relative="1" as="geometry">
            <mxPoint x="2" y="9" as="offset" />
          </mxGeometry>
        </mxCell>
        <mxCell id="ut0Zyik2L8hWZqNM1mhC-43" value="Upload Spatial Data Nightly" style="edgeStyle=orthogonalEdgeStyle;rounded=0;orthogonalLoop=1;jettySize=auto;html=1;exitX=1;exitY=0.5;exitDx=0;exitDy=0;entryX=0;entryY=0;entryDx=160;entryDy=150;entryPerimeter=0;" edge="1" parent="1" source="ut0Zyik2L8hWZqNM1mhC-11" target="ut0Zyik2L8hWZqNM1mhC-28">
          <mxGeometry relative="1" as="geometry" />
        </mxCell>
      </root>
    </mxGraphModel>
  </diagram>
</mxfile>
